<svg width="62" height="80" viewBox="0 0 62 80" fill="none" xmlns="http://www.w3.org/2000/svg">
<path d="M60.957 80C61.5098 80 61.957 79.5527 61.957 79V14.6787C61.957 14.5375 61.9265 14.4041 61.8738 14.2823C61.8635 14.2585 61.8428 14.2411 61.8306 14.2182C61.7803 14.1231 61.723 14.0328 61.646 13.959C61.6412 13.9545 61.6396 13.9478 61.6348 13.9434L46.8057 0.264648C46.6211 0.0947266 46.3789 0 46.1279 0H1C0.447266 0 0 0.447266 0 1V79C0 79.5527 0.447266 80 1 80H60.957ZM47.1279 4.5L57.2384 13.6787H47.1279V4.5ZM3 3.28278H44.2538C44.2538 3.28278 44.2538 14.126 44.2538 14.6787C44.2538 15.2314 45 16.5 46.1279 16.5C47.2559 16.5 59 16.5 59 16.5V77H3V3.28278Z" fill="#D10000"/>
<path d="M11.416 11.5H31.8398C32.3926 11.5 32.8398 11.0527 32.8398 10.5C32.8398 9.94727 32.3926 9.5 31.8398 9.5H11.416C10.8633 9.5 10.416 9.94727 10.416 10.5C10.416 11.0527 10.8633 11.5 11.416 11.5Z" fill="#D10000"/>
<path d="M11.416 18.4004H31.8398C32.3926 18.4004 32.8398 17.9531 32.8398 17.4004C32.8398 16.8477 32.3926 16.4004 31.8398 16.4004H11.416C10.8633 16.4004 10.416 16.8477 10.416 17.4004C10.416 17.9531 10.8633 18.4004 11.416 18.4004Z" fill="#D10000"/>
<path d="M50.9901 28H26.0099C25.4517 28 25 28.4473 25 29C25 29.5527 25.4517 30 26.0099 30H50.9901C51.5483 30 52 29.5527 52 29C52 28.4473 51.5483 28 50.9901 28Z" fill="#D10000"/>
<path d="M19.2012 27.6475H11.3584C10.8057 27.6475 10.3584 28.0947 10.3584 28.6475V36.4912C10.3584 37.0439 10.8057 37.4912 11.3584 37.4912H19.2012C19.7539 37.4912 20.2012 37.0439 20.2012 36.4912V28.6475C20.2012 28.0947 19.7539 27.6475 19.2012 27.6475ZM18.2012 35.4912H12.3584V29.6475H18.2012V35.4912Z" fill="#D10000"/>
<path d="M50.9901 43H26.0099C25.4517 43 25 43.4473 25 44C25 44.5527 25.4517 45 26.0099 45H50.9901C51.5483 45 52 44.5527 52 44C52 43.4473 51.5483 43 50.9901 43Z" fill="#D10000"/>
<path d="M19.2012 42.5088H11.3584C10.8057 42.5088 10.3584 42.9561 10.3584 43.5088V51.3525C10.3584 51.9053 10.8057 52.3525 11.3584 52.3525H19.2012C19.7539 52.3525 20.2012 51.9053 20.2012 51.3525V43.5088C20.2012 42.9561 19.7539 42.5088 19.2012 42.5088ZM18.2012 50.3525H12.3584V44.5088H18.2012V50.3525Z" fill="#D10000"/>
<path d="M50.7861 57.3701H26.0518C25.499 57.3701 25.0518 57.8174 25.0518 58.3701C25.0518 58.9229 25.499 59.3701 26.0518 59.3701H50.7861C51.3389 59.3701 51.7861 58.9229 51.7861 58.3701C51.7861 57.8174 51.3389 57.3701 50.7861 57.3701Z" fill="#D10000"/>
<path d="M19.2012 57.3701H11.3584C10.8057 57.3701 10.3584 57.8174 10.3584 58.3701V66.2129C10.3584 66.7656 10.8057 67.2129 11.3584 67.2129H19.2012C19.7539 67.2129 20.2012 66.7656 20.2012 66.2129V58.3701C20.2012 57.8174 19.7539 57.3701 19.2012 57.3701ZM18.2012 65.2129H12.3584V59.3701H18.2012V65.2129Z" fill="#D10000"/>
</svg>
