<svg width="81" height="61" viewBox="0 0 81 61" fill="none" xmlns="http://www.w3.org/2000/svg">
<path fill-rule="evenodd" clip-rule="evenodd" d="M0 16.5177V19.0591H1.2654C3.48459 19.0591 5.621 19.9017 7.25192 21.4126L17.855 31.2369C19.9373 33.1663 22.6334 34.2979 25.4628 34.4344L35.3838 35.1491C35.3939 35.1493 35.404 35.1493 35.4142 35.1491C38.9846 35.3192 41.771 38.2528 41.771 41.8411V49.4319H44.3021V41.8411C44.3021 36.9214 40.4315 32.8463 35.5377 32.6124L25.6117 31.8977C25.6016 31.8976 25.5915 31.8976 25.5813 31.8977C23.3444 31.7911 21.2209 30.8952 19.5756 29.3707L8.96738 19.5411C6.86969 17.5977 4.1202 16.518 1.26565 16.518L0 16.5177Z" fill="#D10000"/>
<path fill-rule="evenodd" clip-rule="evenodd" d="M0 21.5873V24.129H1.63623C1.97011 24.129 2.29007 24.2588 2.52624 24.4961L9.70855 31.7142H0V34.2562H12.7636C13.0138 34.2561 13.2584 34.1816 13.4664 34.0419C13.6745 33.9022 13.8366 33.7036 13.9323 33.4714C14.0281 33.2392 14.0531 32.9838 14.0043 32.7373C13.9555 32.4909 13.835 32.2643 13.6581 32.0865L4.31561 22.699C3.60559 21.9862 2.6404 21.587 1.63623 21.587L0 21.5873Z" fill="#D10000"/>
<path fill-rule="evenodd" clip-rule="evenodd" d="M38.005 48.1817C37.8368 48.1786 37.6698 48.2092 37.5136 48.2717C37.3574 48.3342 37.2151 48.4275 37.0951 48.5458C36.9751 48.6641 36.8798 48.8052 36.8148 48.9609C36.7497 49.1166 36.7162 49.2837 36.7162 49.4525C36.7162 49.6214 36.7497 49.7887 36.8148 49.9445C36.8798 50.1002 36.9751 50.2413 37.0951 50.3596C37.2151 50.4779 37.3574 50.5709 37.5136 50.6334C37.6698 50.6959 37.8368 50.7265 38.005 50.7234H43.0374C43.7467 50.7234 44.293 51.2728 44.293 51.9843C44.293 52.6961 43.7467 53.2451 43.0374 53.2451H36.7497C36.5816 53.242 36.4145 53.2727 36.2583 53.3351C36.1021 53.3976 35.9598 53.4909 35.8398 53.6092C35.7199 53.7276 35.6246 53.8686 35.5595 54.0244C35.4944 54.1801 35.4609 54.3471 35.4609 54.516C35.4609 54.6849 35.4944 54.8522 35.5595 55.0079C35.6246 55.1636 35.7199 55.3047 35.8398 55.423C35.9598 55.5413 36.1021 55.6344 36.2583 55.6968C36.4145 55.7593 36.5816 55.7899 36.7497 55.7868H43.0374C44.7658 55.7868 46.0018 54.4845 46.4484 52.8831C46.5668 52.7654 46.6609 52.6255 46.7253 52.4712C46.7897 52.3169 46.8232 52.1513 46.8238 51.984C46.8238 49.8981 45.1141 48.1814 43.0374 48.1814L38.005 48.1817Z" fill="#D10000"/>
<path d="M24.4866 40.7303C18.9266 40.7303 14.3923 45.2847 14.3926 50.8678C14.3923 56.4508 18.9266 61 24.4866 61C30.0466 61 34.5807 56.4508 34.5807 50.8678C34.5807 45.2847 30.0466 40.7303 24.4866 40.7303ZM24.4866 43.272C28.6795 43.272 32.0499 46.6588 32.0499 50.8678C32.0499 55.0768 28.6795 58.4583 24.4866 58.4583C20.2938 58.4583 16.9231 55.0768 16.9234 50.8678C16.9231 46.6588 20.2938 43.272 24.4866 43.272Z" fill="#D10000"/>
<path d="M24.49 45.7938C21.7164 45.7938 19.438 48.0823 19.438 50.8675C19.438 53.6529 21.7164 55.936 24.49 55.936C27.2638 55.936 29.5369 53.6529 29.5369 50.8675C29.5369 48.0823 27.2638 45.7938 24.49 45.7938ZM24.49 48.3358C25.8963 48.3358 27.0061 49.4564 27.0061 50.8675C27.0061 52.2786 25.8963 53.3943 24.49 53.3943C23.0841 53.3943 21.969 52.2786 21.969 50.8675C21.969 49.4564 23.0841 48.3358 24.49 48.3358Z" fill="#D10000"/>
<path fill-rule="evenodd" clip-rule="evenodd" d="M0 53.2448V55.7864H11.5177V53.2448H0Z" fill="#D10000"/>
<path fill-rule="evenodd" clip-rule="evenodd" d="M0 48.1814V50.7231H10.2573V48.1814H0Z" fill="#D10000"/>
<path fill-rule="evenodd" clip-rule="evenodd" d="M80.9903 18.6848L72.4583 24.0614C71.6176 24.5974 70.696 24.996 69.7295 25.2381L55.6461 28.7774C51.9601 29.7015 49.3566 33.0397 49.3584 36.8545V43.6857C49.3584 48.2666 53.0857 52.0059 57.6481 52.0059H60.288H61.6079C61.776 52.009 61.943 51.9784 62.0992 51.9159C62.2555 51.8534 62.3977 51.7604 62.5177 51.6421C62.6377 51.5238 62.733 51.3827 62.7981 51.227C62.8631 51.0712 62.8966 50.9039 62.8966 50.735C62.8966 50.5662 62.8631 50.3991 62.7981 50.2434C62.733 50.0877 62.6377 49.9463 62.5177 49.828C62.3977 49.7097 62.2555 49.6167 62.0992 49.5542C61.943 49.4917 61.776 49.4611 61.6079 49.4642H60.288H57.6481C54.4529 49.4642 51.8996 46.892 51.8996 43.6857V36.8545C51.8983 34.1947 53.6874 31.8892 56.2592 31.2449L70.3474 27.705C71.5754 27.3976 72.7443 26.8914 73.8128 26.2108L81.0002 21.6832L80.9903 18.6848Z" fill="#D10000"/>
<path d="M70.8668 40.6647C65.2906 40.6647 60.7432 45.2317 60.7432 50.8317C60.7432 56.4318 65.2906 60.9988 70.8668 60.9988C76.443 60.9988 80.9905 56.4318 80.9905 50.8317C80.9905 45.2317 76.443 40.6647 70.8668 40.6647ZM70.8668 43.2064C75.0751 43.2064 78.4595 46.6052 78.4595 50.8317C78.4595 55.0583 75.0751 58.4571 70.8668 58.4571C66.6583 58.4571 63.274 55.0583 63.274 50.8317C63.274 46.6052 66.6583 43.2064 70.8668 43.2064Z" fill="#D10000"/>
<path d="M70.8685 45.7493C68.0879 45.7493 65.8066 48.0404 65.8066 50.8329C65.8066 53.6257 68.0879 55.9163 70.8685 55.9163C73.6491 55.9163 75.9303 53.6257 75.9303 50.8329C75.9303 48.0404 73.6491 45.7493 70.8685 45.7493ZM70.8685 48.2913C72.2812 48.2913 73.3993 49.4142 73.3993 50.8329C73.3993 52.2517 72.2812 53.3749 70.8685 53.3749C69.4558 53.3749 68.3374 52.2517 68.3374 50.8329C68.3374 49.4142 69.4558 48.2913 70.8685 48.2913Z" fill="#D10000"/>
<path fill-rule="evenodd" clip-rule="evenodd" d="M41.6982 0.00144788C41.4239 0.01597 41.1618 0.119933 40.9514 0.297246C40.7409 0.474558 40.5937 0.715647 40.5318 0.984411L37.1161 15.8282L29.7358 11.5936C29.4958 11.4571 29.2179 11.4029 28.9445 11.4396C28.6711 11.4764 28.4171 11.602 28.2212 11.797C28.0253 11.9921 27.8982 12.246 27.8593 12.5202C27.8204 12.7945 27.8718 13.0739 28.0057 13.3162L34.3332 24.7491C34.4099 24.9021 34.5167 25.0379 34.6471 25.1484C34.7775 25.2588 34.9288 25.3417 35.0919 25.392C35.255 25.4422 35.4265 25.4589 35.5962 25.4409C35.7658 25.4229 35.9301 25.3707 36.0792 25.2873C36.2282 25.2039 36.3589 25.0912 36.4634 24.9558C36.568 24.8204 36.6442 24.6653 36.6874 24.4996C36.7307 24.3339 36.7402 24.161 36.7153 23.9916C36.6904 23.8221 36.6316 23.6592 36.5425 23.5131L32.42 16.0616L37.3386 18.8812C37.5098 18.9801 37.7016 19.0372 37.8988 19.0483C38.096 19.0594 38.293 19.0242 38.4741 18.9451C38.6552 18.866 38.8153 18.7454 38.9418 18.593C39.0682 18.4407 39.1573 18.2608 39.2021 18.0677L41.9901 5.94906L44.3629 13.103C44.4315 13.3077 44.5509 13.4914 44.7098 13.6369C44.8687 13.7823 45.0618 13.8847 45.271 13.9344C45.4803 13.9841 45.6986 13.9795 45.9056 13.9209C46.1125 13.8624 46.3012 13.7517 46.4538 13.5996L50.6208 9.41978V15.2378C50.6198 15.4653 50.6796 15.689 50.794 15.8854C50.9084 16.0818 51.0732 16.2436 51.2711 16.3542C51.4691 16.4648 51.693 16.5199 51.9194 16.5139C52.1459 16.508 52.3666 16.4413 52.5585 16.3205L58.8663 12.3637L54.5509 21.0216C54.4752 21.171 54.4297 21.334 54.417 21.5012C54.4043 21.6683 54.4246 21.8365 54.4769 21.9957C54.5291 22.155 54.6122 22.3022 54.7214 22.429C54.8305 22.5559 54.9636 22.6598 55.1129 22.7348C55.2623 22.8098 55.4249 22.8545 55.5914 22.8661C55.758 22.8777 55.9252 22.8561 56.0834 22.8025C56.2416 22.7489 56.3877 22.6644 56.5132 22.5539C56.6387 22.4434 56.7413 22.3089 56.8149 22.1584L63.1421 9.45935C63.2653 9.21185 63.3047 8.93076 63.2543 8.65874C63.2039 8.38671 63.0665 8.13869 62.8629 7.95222C62.6594 7.76576 62.4008 7.6511 62.1265 7.62564C61.8521 7.60019 61.577 7.66535 61.3429 7.81121L53.1518 12.9494V6.35157C53.1528 6.0998 53.0793 5.85364 52.9407 5.64389C52.802 5.43413 52.6044 5.2702 52.373 5.17336C52.1416 5.07653 51.8868 5.05096 51.6409 5.09978C51.3949 5.1486 51.169 5.26978 50.9916 5.44776L46.1128 10.3476L42.9639 0.865388C42.8757 0.60243 42.7042 0.375786 42.4757 0.219852C42.2472 0.0639173 41.9741 -0.0127861 41.6982 0.00174104V0.00144788Z" fill="#D10000"/>
</svg>
