<svg width="70" height="80" viewBox="0 0 70 80" fill="none" xmlns="http://www.w3.org/2000/svg">
<path d="M28.4992 22.0926C29.5719 22.6927 30.7918 22.9871 32.0236 22.9436C32.8722 22.9384 33.7181 22.8409 34.545 22.6517C36.1574 22.3306 37.6613 21.6103 38.9154 20.5578C39.2441 20.2646 39.5313 19.9291 39.7693 19.5605C40.2221 18.8968 40.3845 18.0803 40.2189 17.2969C40.0243 16.5083 39.5155 15.8316 38.8083 15.4207C36.9363 14.4872 34.7771 14.2876 32.7624 14.8617C30.6886 15.2056 28.8226 16.3107 27.5382 17.9574C27.0847 18.6205 26.923 19.437 27.0886 20.2204C27.2838 21.0076 27.7926 21.6824 28.4992 22.0926ZM29.8197 19.3648C30.7419 18.3436 31.9927 17.6694 33.3599 17.4568C33.9843 17.3138 34.6226 17.2403 35.2635 17.2371C35.9917 17.1987 36.7168 17.3489 37.3688 17.6714C37.5384 17.776 37.587 17.8573 37.5936 17.8878C37.5824 17.9828 37.5456 18.0718 37.4878 18.1479C36.5662 19.1685 35.3154 19.842 33.9482 20.0539C32.627 20.4414 31.2112 20.3653 29.9393 19.8401C29.7697 19.7347 29.7217 19.6535 29.7145 19.6229C29.7257 19.5293 29.7625 19.4403 29.8197 19.3648Z" fill="#D10000"/>
<path d="M19.9625 22.0928C20.6757 21.6969 21.1864 21.0214 21.3698 20.2329C21.5525 19.4443 21.3908 18.6161 20.9235 17.9523C19.6384 16.3076 17.773 15.2038 15.7006 14.8618C13.6859 14.2845 11.5254 14.4841 9.65338 15.4196C8.94086 15.8162 8.43014 16.4916 8.24741 17.2802C8.06468 18.0681 8.22572 18.8963 8.6924 19.5607C9.97677 21.2054 11.8428 22.3086 13.9153 22.6505C14.7429 22.841 15.5888 22.9392 16.438 22.9437C17.6698 22.9873 18.8898 22.6928 19.9625 22.0928ZM14.5128 20.0541C13.1463 19.8422 11.8954 19.1687 10.9739 18.148C10.9101 18.07 10.8746 17.9738 10.8714 17.8737C10.8714 17.8574 10.9226 17.7762 11.0922 17.6715C11.7443 17.3491 12.4699 17.1989 13.1975 17.2373C13.8391 17.2405 14.478 17.3146 15.1024 17.4583C16.4696 17.6702 17.7204 18.3437 18.642 19.365C18.7011 19.4424 18.7379 19.534 18.7478 19.6309V19.6458C18.7478 19.6614 18.6972 19.7427 18.5269 19.848C17.2538 20.3739 15.8346 20.4474 14.5128 20.0541Z" fill="#D10000"/>
<path d="M33.4506 32.3974C33.5775 31.9312 33.4388 31.4339 33.0891 31.0972C32.7394 30.7604 32.232 30.6376 31.7647 30.776C31.2967 30.9145 30.9417 31.2922 30.8359 31.7642C30.2167 34.256 27.4396 36.0645 24.2307 36.0645C21.0888 36.0645 18.3222 34.3002 17.653 31.8701C17.538 31.3995 17.1732 31.027 16.7006 30.8989C16.228 30.7708 15.7219 30.9067 15.3801 31.2545C15.0383 31.6016 14.9141 32.1055 15.0567 32.5696C16.0538 36.1971 19.8274 38.7273 24.2307 38.7273C28.6622 38.7273 32.5403 36.0645 33.4506 32.3974Z" fill="#D10000"/>
<path d="M67.0382 29.1903C64.3689 27.1224 60.5204 28.0507 56.0619 29.1331C52.3219 30.1947 48.4484 30.7213 44.5578 30.6972C46.9938 24.3218 48.3143 17.5823 48.4615 10.7681C48.4615 5.82872 47.519 2.798 45.4997 1.23128C42.8317 -0.83665 38.9806 0.0929775 34.5235 1.17408C31.1706 2.11736 27.7145 2.65628 24.2308 2.7798C20.7458 2.65693 17.2883 2.11736 13.9341 1.17408C9.47435 0.0929775 5.62519 -0.83665 2.9572 1.23128C0.941913 2.798 0 5.82872 0 10.7681C0 26.6569 9.96141 50.9586 23.3513 51.9916C26.8304 65.6662 35.1913 80 45.7692 80C59.5956 80 70 54.9618 70 38.7271C70 33.7878 69.0574 30.757 67.0382 29.1903ZM9.24561 36.197C5.17231 28.3095 2.93354 19.6217 2.69231 10.7681C2.69231 6.8227 3.33975 4.31856 4.62149 3.32652C5.34255 2.83895 6.20887 2.60427 7.08045 2.66083C9.18513 2.8045 11.2681 3.1718 13.2933 3.75688C16.8558 4.75867 20.5288 5.32425 24.2308 5.44256C27.932 5.32555 31.6057 4.75997 35.1683 3.75948C38.9438 2.84611 42.206 2.0543 43.84 3.32652C45.1218 4.31856 45.7692 6.8227 45.7692 10.7681C45.6049 17.8463 44.1312 24.8347 41.4225 31.3883C39.7924 35.5937 37.5438 39.5371 34.7483 43.0925C33.711 44.3751 32.543 45.5492 31.2632 46.5952C29.3485 48.2522 26.9316 49.2313 24.3925 49.3782H24.2308C19.0644 49.3782 13.5963 44.574 9.24561 36.197ZM34.6175 47.1854C34.7969 47.0119 34.973 46.8377 35.1558 46.6524C35.3076 46.4957 35.4601 46.3351 35.6126 46.1707C35.792 45.9789 35.9715 45.7826 36.1509 45.581C36.218 45.5037 36.2857 45.4315 36.3554 45.3548C36.4513 45.3717 36.5506 45.3919 36.6492 45.4159C38.0157 45.6278 39.2665 46.3013 40.1881 47.3226C40.2472 47.4 40.284 47.4916 40.2946 47.5885V47.6035C40.2946 47.6191 40.2433 47.7003 40.0737 47.8056C38.8038 48.3322 37.3899 48.4083 36.0701 48.0215C35.4838 47.8882 34.9113 47.699 34.3618 47.4565C34.44 47.3662 34.5274 47.2719 34.6175 47.1841V47.1854ZM60.7544 64.156C56.4037 72.5331 50.9356 77.3372 45.7692 77.3372C37.154 77.3372 29.501 64.7717 26.1021 51.8888C26.1514 51.881 26.2014 51.8609 26.2526 51.8531C26.7686 51.7634 27.2787 51.6412 27.7789 51.4871C27.8466 51.4669 27.9136 51.439 27.98 51.4175C28.4572 51.2602 28.9252 51.0762 29.3827 50.8676C29.4714 50.8279 29.5589 50.7921 29.6515 50.7492C30.1596 50.5048 30.6539 50.2337 31.1324 49.9373C31.2389 49.8716 31.3454 49.804 31.4499 49.7351C31.6747 49.5895 31.8995 49.4432 32.123 49.2846C33.1543 49.9035 34.2803 50.3507 35.4575 50.6095C36.285 50.7999 37.131 50.8981 37.9802 50.9027C39.212 50.9462 40.4319 50.6517 41.5047 50.0517C42.2172 49.6551 42.7279 48.9797 42.9106 48.1918C43.0934 47.4032 42.9323 46.5757 42.4656 45.9113C41.4034 44.4999 39.8824 43.4929 38.1577 43.0606C38.3529 42.7941 38.5481 42.5282 38.7407 42.2402C38.8689 42.0543 38.9938 41.8573 39.1206 41.6655C39.2981 41.399 39.4756 41.1325 39.6498 40.8516C39.7838 40.6377 39.9186 40.4135 40.0533 40.1931C40.215 39.9265 40.3754 39.66 40.5338 39.387C40.6686 39.1503 40.8033 38.9079 40.9381 38.6654C41.0873 38.3995 41.2365 38.1265 41.3831 37.8508C41.5178 37.5953 41.6525 37.334 41.7873 37.0733C41.922 36.8126 42.0647 36.5285 42.2007 36.2503C42.3361 35.9721 42.4696 35.7023 42.5978 35.424C42.7253 35.1458 42.8574 34.8702 42.9842 34.5874C43.1104 34.3052 43.2426 34.0101 43.3688 33.7169C43.4279 33.5836 43.4904 33.4504 43.5495 33.3093C47.9981 33.4965 52.4474 32.9569 56.7186 31.712C60.4948 30.7973 63.7563 30.0062 65.3903 31.2791C66.6602 32.2776 67.3077 34.7817 67.3077 38.7271C67.0665 47.5807 64.8277 56.2685 60.7544 64.156Z" fill="#D10000"/>
<path d="M61.7564 45.2429C61.2464 43.0222 58.0394 41.9769 54.3 42.8194C52.8105 43.1275 51.4105 43.7646 50.205 44.6832C49.0317 45.4464 48.4158 46.8161 48.6288 48.1891C49.0192 49.8917 50.9951 50.9026 53.5809 50.9026C54.4242 50.8974 55.2636 50.8005 56.0852 50.612C57.5747 50.3038 58.9747 49.6667 60.1802 48.7482C61.3502 47.9863 61.9661 46.6211 61.7577 45.2507L61.7564 45.2429ZM58.4732 46.6887C57.5904 47.3453 56.5716 47.7997 55.4897 48.0201C52.9512 48.5922 51.3277 47.9278 51.2534 47.606C51.2376 47.5351 51.3678 47.1893 51.9107 46.7485C52.7941 46.0919 53.8129 45.6375 54.8949 45.4171C55.5232 45.2722 56.1667 45.1961 56.8122 45.1922C58.2254 45.1922 59.0759 45.5992 59.1312 45.8312C59.1476 45.9014 59.0168 46.2479 58.4732 46.6887Z" fill="#D10000"/>
<path d="M45.8053 58.7081C41.3737 58.7081 37.4957 61.3709 36.5866 65.0374C36.4098 65.7512 36.8508 66.4715 37.5726 66.647C37.6777 66.673 37.7855 66.686 37.894 66.686C38.5132 66.6847 39.0521 66.266 39.2 65.6712C39.8192 63.1788 42.5976 61.3709 45.8053 61.3709C48.9471 61.3709 51.7137 63.1352 52.3829 65.5646C52.5781 66.2745 53.3175 66.6932 54.0353 66.5001C54.7524 66.307 55.1757 65.5757 54.9805 64.8658C53.9808 61.2389 50.2111 58.7081 45.8053 58.7081Z" fill="#D10000"/>
</svg>
