<svg width="80" height="80" viewBox="0 0 80 80" fill="none" xmlns="http://www.w3.org/2000/svg">
<path d="M76.8068 24.4274C72.589 14.5941 65.4217 7.4426 55.5063 3.21371C50.5505 1.10012 45.3584 0.0205078 39.9342 0.0205078C34.511 0.0205078 29.3573 1.08992 24.4069 3.21371C14.5736 7.43136 7.37451 14.5783 3.14928 24.4274C1.03203 29.3618 0 34.5314 0 39.9546C0 45.3789 1.03203 50.5914 3.14928 55.5268C7.37451 65.3759 14.5745 72.5657 24.4069 76.7844C29.3582 78.9082 34.5109 79.9766 39.9342 79.9766C45.3577 79.9766 50.5505 78.897 55.5055 76.7844C65.4209 72.5554 72.5882 65.3592 76.8069 55.5268C78.9306 50.5755 80 45.3789 80 39.9546C80 34.5314 78.9315 29.3785 76.8068 24.4274ZM70.4214 57.6264C67.2814 63.0114 62.9797 67.2834 57.562 70.4419C52.177 73.5819 46.2767 75.1655 39.9352 75.1655C35.1678 75.1655 30.6188 74.2473 26.2881 72.3661C21.9575 70.4859 18.2184 68.014 15.0906 64.887C11.9627 61.7592 9.4732 57.9836 7.61163 53.6456C5.75556 49.3234 4.85608 44.723 4.85608 39.9548C4.85608 33.6123 6.41438 27.7419 9.53673 22.3719C12.6702 16.9822 16.9728 12.7056 22.3523 9.55619C27.7309 6.40691 33.5928 4.83175 39.9342 4.83175C46.2767 4.83175 52.176 6.41619 57.5611 9.55619C62.9788 12.7149 67.2712 16.9914 70.4205 22.3717C73.5698 27.7512 75.1441 33.6123 75.1441 39.9546C75.1441 46.2972 73.5801 52.2076 70.4214 57.6264Z" fill="#D10000"/>
<path d="M42.4717 39.6066V16.9492C42.4717 15.5934 41.2904 14.4998 39.9344 14.4998C38.6663 14.4998 37.5288 15.5934 37.5288 16.9492V39.9564C37.5288 40.0003 37.6165 40.1757 37.6165 40.3064C37.5288 41.0939 37.7482 41.75 38.2726 42.2753L51.3514 55.3532C52.2266 56.2284 53.8446 56.2284 54.7191 55.3532C55.7249 54.3473 55.6588 52.8879 54.7191 51.9416L42.4717 39.6066Z" fill="#D10000"/>
</svg>
