<svg width="80" height="80" viewBox="0 0 80 80" fill="none" xmlns="http://www.w3.org/2000/svg">
<path d="M79.6795 47.1229L76.6266 41.0164H74.5525V6.40882C74.5525 2.8752 71.6772 0 68.1436 0H45.0719C41.5383 0 38.6631 2.8752 38.6631 6.40882V20.5082H43.7901V17.9447H41.2266V6.40882C41.2266 4.28902 42.9521 2.56353 45.0719 2.56353H68.1436C70.2634 2.56353 71.9889 4.28902 71.9889 6.40882V41.0164H69.9148L66.8619 47.1229V64.0882H69.4254V76.1548L73.2707 80L77.116 76.1548V64.0882H79.6795V47.1229ZM77.116 48.707V56.3976H69.4254V48.707H77.116ZM75.0419 43.5799L76.3236 46.1435H70.2177L71.4995 43.5799H75.0419ZM74.5525 75.0933L73.2707 76.3751L71.9889 75.0933V64.0882H74.5525V75.0933ZM69.4254 61.5246V58.9611H77.116V61.5246H69.4254Z" fill="#D10000"/>
<path d="M14.3097 5.12708C9.36356 5.12708 5.3374 9.15324 5.3374 14.0994H7.90093C7.90093 10.5658 10.7761 7.6906 14.3097 7.6906C17.8434 7.6906 20.7186 10.5658 20.7186 14.0994H23.2821C23.2821 9.15324 19.2559 5.12708 14.3097 5.12708Z" fill="#D10000"/>
<path d="M14.3094 2.56353C20.6706 2.56353 25.8452 7.73815 25.8452 14.0994H28.4088C28.4088 6.32558 22.0832 0 14.3094 0C6.53554 0 0.209961 6.32558 0.209961 14.0994H2.77349C2.77349 7.73815 7.94811 2.56353 14.3094 2.56353Z" fill="#D10000"/>
<path d="M36.0993 41.0165H39.9446V67.9335C39.9446 70.0533 38.2191 71.7788 36.0993 71.7788H33.5358C33.5358 70.365 32.3861 69.2153 30.9723 69.2153H28.4088V67.5862L19.4364 52.205V38.453H15.5911V17.7088C17.0794 17.1781 18.1547 15.768 18.1547 14.0994C18.1547 11.9796 16.4292 10.2542 14.3094 10.2542C12.1896 10.2542 10.4641 11.9796 10.4641 14.0994C10.4641 15.768 11.5393 17.1781 13.0276 17.7088V38.453H9.18231V52.2063L0.209961 67.5874V79.4694H28.4088V76.9059H30.9723C32.3861 76.9059 33.5358 75.7562 33.5358 74.3423H36.0993C39.633 74.3423 42.5082 71.4671 42.5082 67.9335V38.453H36.0993V41.0165ZM14.3094 12.8177C15.0166 12.8177 15.5911 13.3922 15.5911 14.0994C15.5911 14.8067 15.0166 15.3812 14.3094 15.3812C13.6015 15.3812 13.0276 14.8067 13.0276 14.0994C13.0276 13.3922 13.6015 12.8177 14.3094 12.8177ZM17.4186 53.8341L24.8952 66.6518H3.72355L11.1995 53.8341H17.4186ZM16.8729 41.0165V51.2706H11.7458V41.0165H16.8729ZM2.77349 76.9059V74.3423H23.2817V71.7788H2.77349V69.2153H25.8452V76.9059H2.77349ZM30.9723 74.3423H28.4088V71.7788H30.9723V74.3423Z" fill="#D10000"/>
<path d="M36.0996 33.3259H43.7902V35.8895H36.0996V33.3259Z" fill="#D10000"/>
<path d="M36.0996 28.1989H43.7902V30.7624H36.0996V28.1989Z" fill="#D10000"/>
<path d="M36.0996 23.0718H43.7902V25.6353H36.0996V23.0718Z" fill="#D10000"/>
</svg>
