<svg width="69" height="91" viewBox="0 0 69 91" fill="none" xmlns="http://www.w3.org/2000/svg">
<path d="M37.205 57.1163H32.6128C30.9429 57.1163 29.5903 55.5839 29.5903 53.692C29.5903 51.8001 30.9429 50.2676 32.6128 50.2676H40.6951C41.7972 50.2676 42.6989 49.246 42.6989 47.9974C42.6989 46.7487 41.7972 45.7271 40.6951 45.7271H36.9044V42.5676C36.9044 41.319 36.0027 40.2974 34.9005 40.2974C33.7984 40.2974 32.8967 41.319 32.8967 42.5676V45.7271H32.6128C28.7386 45.7271 25.5825 49.3028 25.5825 53.692C25.5825 58.0812 28.7386 61.6568 32.6128 61.6568H37.205C38.8749 61.6568 40.2275 63.1893 40.2275 65.0812C40.2275 66.9731 38.8749 68.5055 37.205 68.5055H28.9724C27.8703 68.5055 26.9685 69.5271 26.9685 70.7758C26.9685 72.0244 27.8703 73.046 28.9724 73.046H32.9134V76.2812C32.9134 77.5298 33.8151 78.5514 34.9172 78.5514C36.0194 78.5514 36.9211 77.5298 36.9211 76.2812V73.046H37.2551C37.2718 73.046 37.2885 73.046 37.3052 73.046C41.1459 72.9893 44.2352 69.4325 44.2352 65.0812C44.2352 60.692 41.0791 57.1163 37.205 57.1163Z" fill="#D10000"/>
<path d="M65.0257 51.9703C62.9216 46.4838 60.016 41.1676 56.3422 36.1919C51.9003 30.1378 47.4751 26.0892 45.2207 24.2162L53.7372 6.31892C54.1546 5.42973 54.021 4.33243 53.3698 3.63243C51.1655 1.19189 48.8277 0 46.2227 0C43.8347 0 41.6471 1.02162 39.7435 1.92973C38.2406 2.62973 36.8212 3.31081 35.6689 3.31081C35.3182 3.31081 35.0177 3.25405 34.7171 3.12162C30.7427 1.47568 27.6868 0.454054 24.7311 0.454054C20.9906 0.454054 17.8011 2.15676 14.6784 5.78919C14.0271 6.54595 13.9269 7.73784 14.4446 8.62703L23.629 24.3486C21.3579 26.2595 17.0162 30.2703 12.6578 36.1919C9.00072 41.1676 6.07841 46.4838 3.97435 51.9703C1.33591 58.8757 0 66.0838 0 73.3865C0 83.0919 6.98015 91 15.5467 91H53.4533C62.0198 91 69 83.0919 69 73.3865C69 66.0838 67.6641 58.8757 65.0257 51.9703ZM17.2715 7.9625C19.2086 6.07061 22.5102 3.63243 24.7311 3.63243C27.1024 3.63243 29.7146 4.29459 33.2715 5.78919C34.0062 6.09189 34.7911 6.24324 35.5926 6.24324C37.5464 6.24324 39.4167 5.37297 41.2035 4.52162C42.9235 3.70811 45.1851 3.31081 46.7715 3.31081C47.5396 3.31081 49.4022 4.69189 50.7715 5.78919L42.7715 22.627H25.7715L17.2715 7.9625ZM53.4533 88.1562H15.5467C9.18441 88.1562 2.27148 80.5946 2.27148 73.3865C2.27148 61.2595 6.55658 48.663 14.2715 38.1063C19.1476 31.4279 24.2686 26.2358 25.7715 25.025H43.2715C44.7911 26.2169 49.3954 31.4279 54.2715 38.1063C62.0031 48.663 66.2715 61.2405 66.2715 73.3865C66.3049 80.5946 59.8156 88.1562 53.4533 88.1562Z" fill="#D10000"/>
</svg>
