<svg width="80" height="80" viewBox="0 0 80 80" fill="none" xmlns="http://www.w3.org/2000/svg">
<path d="M40 0C17.944 0 0 17.944 0 40C0 62.056 17.944 80 40 80C62.056 80 80 62.056 80 40C80 17.944 62.0562 0 40 0ZM40 75.6756C30.2007 75.6756 21.3125 71.7037 14.8583 65.2863C12.281 62.7235 10.0931 59.77 8.38957 56.524C5.79521 51.581 4.32438 45.9593 4.32438 40C4.32438 20.3284 20.3284 4.32438 40 4.32438C49.3307 4.32438 57.8346 7.92659 64.1984 13.8115C67.4979 16.8624 70.2226 20.5262 72.1872 24.6214C74.4224 29.2807 75.6756 34.4967 75.6756 40C75.6756 59.6716 59.6716 75.6756 40 75.6756Z" fill="#D10000"/>
<path d="M26.327 30.9194C28.6513 30.9194 30.5424 32.7023 30.5424 35.1348H34.8668C34.8668 30.2699 31.0359 26.595 26.327 26.595C21.618 26.595 17.7871 30.2699 17.7871 35.1348H22.1115C22.1115 32.7023 24.0029 30.9194 26.327 30.9194Z" fill="#D10000"/>
<path d="M53.6722 30.9194C55.9965 30.9194 57.8876 32.7023 57.8876 35.1348H62.212C62.212 30.2699 58.3812 26.595 53.6722 26.595C48.9632 26.595 45.1323 30.2699 45.1323 35.1348H49.4567C49.4567 32.7023 51.3478 30.9194 53.6722 30.9194Z" fill="#D10000"/>
<path d="M39.9239 62.1617C48.29 62.1617 56.3076 57.8833 60.8982 50.7797L57.266 48.4326C53.0508 54.9557 45.3378 58.5963 37.619 57.7052C31.6022 57.0114 26.038 53.5448 22.7345 48.4326L19.1025 50.7797C23.0999 56.966 29.8367 61.1606 37.1233 62.0009C38.0587 62.109 38.9928 62.1617 39.9239 62.1617Z" fill="#D10000"/>
</svg>
