<svg width="81" height="69" viewBox="0 0 81 69" fill="none" xmlns="http://www.w3.org/2000/svg">
<path d="M40.1567 60.0017C28.2164 60.0017 18.5029 50.2873 18.5029 38.348C18.5029 26.4078 28.2164 16.6934 40.1567 16.6934C52.0969 16.6934 61.8104 26.4078 61.8104 38.348C61.8104 50.2873 52.0969 60.0017 40.1567 60.0017ZM40.1567 20.2547C30.1805 20.2547 22.0643 28.3709 22.0643 38.348C22.0643 48.3241 30.1805 56.4404 40.1567 56.4404C50.1328 56.4404 58.2491 48.3241 58.2491 38.348C58.2491 28.3709 50.1328 20.2547 40.1567 20.2547Z" fill="#D10000"/>
<path d="M69.2837 69.0006H11.0294C4.94757 69.0006 0 64.053 0 57.9712V21.0626C0 14.9807 4.94757 10.0331 11.0294 10.0331H17.8369C18.4156 10.0331 18.9667 9.75535 19.3113 9.28971L24.5642 2.18665C25.5774 0.817324 27.1987 0 28.9019 0H51.3463C53.1082 0 54.7625 0.86273 55.7703 2.30774L60.6155 9.24875C60.9591 9.74022 61.5218 10.0331 62.1193 10.0331H69.282C75.3638 10.0331 80.3114 14.9807 80.3114 21.0626V57.9721C80.3132 64.053 75.3656 69.0006 69.2837 69.0006ZM11.0294 13.5945C6.91164 13.5945 3.56132 16.9448 3.56132 21.0626V57.9721C3.56132 62.0899 6.91164 65.4402 11.0294 65.4402H69.2837C73.4015 65.4402 76.7518 62.0899 76.7518 57.9721V21.0626C76.7518 16.9448 73.4015 13.5945 69.2837 13.5945H62.121C60.3591 13.5945 58.7057 12.7317 57.697 11.2876L52.8509 4.3457C52.5081 3.85424 51.9463 3.56132 51.348 3.56132H28.9028C28.3241 3.56132 27.7721 3.8391 27.4293 4.30475L22.1755 11.4078C21.1614 12.7771 19.5401 13.5945 17.8378 13.5945H11.0294Z" fill="#D10000"/>
</svg>
