<svg width="235" height="21" viewBox="0 0 235 21" fill="none" xmlns="http://www.w3.org/2000/svg">
<path d="M23.0933 20.125H28.4632L16.9475 0H11.5156L0 20.125H5.30774L7.6357 15.87H20.7654L23.0933 20.125ZM7.6357 15.87L14.185 3.93875L20.7654 15.87H7.6357ZM41.0007 0H26.1328V20.125H31.0991V13.6275H41.0007C46.5878 13.6275 50.3125 11.27 50.3125 6.81375C50.3125 2.415 46.5878 0 41.0007 0ZM40.5972 9.8325H26.1328V3.93875L40.5972 3.8525C43.3907 3.8525 45.2531 4.5425 45.2531 6.8425C45.2531 9.1425 43.3907 9.8325 40.5972 9.8325Z" fill="white"/>
<path d="M84.8856 14.7652H88.1214L82.7234 2.66013H79.398L74 14.7652H77.1911L78.1753 12.448H83.9014L84.8856 14.7652ZM79.2191 9.94047L81.0383 5.65181L82.8427 9.94047H79.2191ZM100.804 5.1849H97.7621L95.2717 11.6179L92.7814 5.1849H89.6947L93.7358 14.7652H96.7629L100.804 5.1849ZM110.526 11.9638C110.049 12.2231 109.587 12.4134 109.095 12.4134C108.304 12.4134 107.753 11.9119 107.753 11.0472V7.58863H110.929V5.1849H107.753V2.95411H104.815V5.1849H103.354V7.58863H104.815V11.6179C104.815 13.9352 106.232 15.1284 108.111 15.1284C109.11 15.1284 110.273 14.7825 111.019 14.1945L110.526 11.9638ZM119.456 15.163C122.766 15.163 124.854 13.1743 124.854 9.97506C124.854 6.75856 122.766 4.80446 119.456 4.80446C116.131 4.80446 114.043 6.75856 114.043 9.97506C114.043 13.1743 116.131 15.163 119.456 15.163ZM119.456 12.5344C117.95 12.5344 116.861 11.6525 116.861 9.97506C116.861 8.28035 117.95 7.4157 119.456 7.4157C120.962 7.4157 122.05 8.28035 122.05 9.97506C122.05 11.6525 120.962 12.5344 119.456 12.5344ZM135.737 10.857V8.17659H128.609V10.857H135.737ZM147.419 2.66013H140.172V14.7652H143.214V11.1337H147.419C150.267 11.1337 152.161 9.71566 152.161 6.89691C152.161 4.11274 150.267 2.66013 147.419 2.66013ZM147.165 8.57433H143.214V5.34054H147.165C148.299 5.34054 149.074 5.73828 149.074 6.96608C149.074 8.17659 148.299 8.57433 147.165 8.57433ZM160.737 15.163C164.047 15.163 166.135 13.1743 166.135 9.97506C166.135 6.75856 164.047 4.80446 160.737 4.80446C157.412 4.80446 155.324 6.75856 155.324 9.97506C155.324 13.1743 157.412 15.163 160.737 15.163ZM160.737 12.5344C159.231 12.5344 158.142 11.6525 158.142 9.97506C158.142 8.28035 159.231 7.4157 160.737 7.4157C162.243 7.4157 163.331 8.28035 163.331 9.97506C163.331 11.6525 162.243 12.5344 160.737 12.5344ZM171.441 4.2165C172.425 4.2165 173.126 3.57666 173.126 2.60825C173.126 1.63984 172.425 1 171.441 1C170.442 1 169.741 1.63984 169.741 2.60825C169.741 3.57666 170.442 4.2165 171.441 4.2165ZM172.932 5.1849H169.98V14.7652H172.932V5.1849ZM181.893 8.59162C180.491 8.50516 179.611 8.4014 179.611 7.83073C179.611 7.24277 180.67 7.08713 181.58 7.08713C182.966 7.08713 184.085 7.45028 184.92 8.03824L186.173 6.10143C185.084 5.34054 183.444 4.78716 181.654 4.78716C178.582 4.78716 176.868 6.11872 176.868 8.07283C176.868 10.2517 179.164 11.0126 181.55 11.2029C183.086 11.3066 183.787 11.5141 183.787 12.0675C183.787 12.6382 183.011 12.8457 181.848 12.8457C180.103 12.8457 178.717 12.2923 177.822 11.5314L176.54 13.3818C177.703 14.3848 179.552 15.163 181.759 15.163C184.98 15.163 186.53 13.6412 186.53 11.7562C186.53 9.64649 184.517 8.76455 181.893 8.59162ZM197.292 14.7652H200.453L196.8 9.05853L200.244 5.1849H196.949L193.161 9.3871V1.96841H190.224V14.7652H193.161V12.5863L194.801 10.8916L197.292 14.7652ZM216.966 4.83904C215.46 4.83904 214.296 5.51347 213.566 6.58563V1.96841H210.628V14.7652H213.566V13.3645C214.296 14.4366 215.46 15.1284 216.966 15.1284C219.56 15.1284 221.35 13.1397 221.35 9.97506C221.35 6.81044 219.56 4.83904 216.966 4.83904ZM216.146 12.4998C215.146 12.4998 214.237 12.1194 213.581 11.1337V8.81643C214.237 7.83073 215.146 7.45028 216.146 7.45028C217.696 7.45028 218.561 8.3841 218.561 9.97506C218.561 11.5833 217.696 12.4998 216.146 12.4998ZM231.814 5.1849L229.383 11.1337L226.863 5.1849H223.836L227.922 14.2291L226.043 18.2238H229.011L234.796 5.1849H231.814Z" fill="white"/>
<path d="M204.972 14.9901C205.971 14.9901 206.672 14.2638 206.672 13.2781C206.672 12.3097 205.971 11.5488 204.972 11.5488C203.958 11.5488 203.257 12.3097 203.257 13.2781C203.257 14.2638 203.958 14.9901 204.972 14.9901Z" fill="#D10000"/>
<path d="M62.0175 13.6328C64.3581 13.6328 66 11.9444 66 9.65291C66 7.40166 64.3581 5.63281 62.0175 5.63281C59.6419 5.63281 58 7.40166 58 9.65291C58 11.9444 59.6419 13.6328 62.0175 13.6328Z" fill="#D10000"/>
</svg>
