<svg width="34" height="34" viewBox="0 0 34 34" fill="none" xmlns="http://www.w3.org/2000/svg">
<path d="M17 0C21.705 0 25.9293 1.88889 29.0202 4.9798C32.1111 8.07071 34 12.295 34 17C34 21.7051 32.1111 25.9293 29.0202 29.0202C25.9293 32.1111 21.705 34 17 34C12.2949 34 8.07071 32.1111 4.9798 29.0202C1.88889 25.9293 0 21.7051 0 17C0 12.295 1.88889 8.07071 4.9798 4.9798C8.03636 1.88889 12.2949 0 17 0ZM28.0929 5.90707C25.2424 3.05656 21.3273 1.30505 17 1.30505C12.6727 1.30505 8.75758 3.05656 5.90707 5.90707C3.05657 8.75758 1.30505 12.6727 1.30505 17C1.30505 21.3273 3.05657 25.2424 5.90707 28.0929C8.75758 30.9434 12.6727 32.695 17 32.695C21.3273 32.695 25.2424 30.9434 28.0929 28.0929C30.9434 25.2424 32.6949 21.3273 32.6949 17C32.6606 12.6727 30.9091 8.75758 28.0929 5.90707Z" fill="white"/>
<path fill-rule="evenodd" clip-rule="evenodd" d="M18.27 13.7388V12.3307C18.27 11.6782 18.7165 11.5064 19.0256 11.5064C19.3347 11.5064 20.9831 11.5064 20.9831 11.5064V8.51855H18.3044C15.3165 8.51855 14.6639 10.7165 14.6639 12.159V13.7388H12.9468V15.8337V17.2074H14.6983C14.6983 21.1569 14.6983 25.8963 14.6983 25.8963H18.167C18.167 25.8963 18.167 21.0883 18.167 17.2074H20.7084L20.8114 15.8337L21.0175 13.7388H18.27Z" fill="white"/>
</svg>
