<svg width="35" height="34" viewBox="0 0 35 34" fill="none" xmlns="http://www.w3.org/2000/svg">
<path d="M17.2715 0C21.9765 0 26.2008 1.88889 29.2917 4.9798C32.3826 8.07071 34.2715 12.3293 34.2715 17C34.2715 21.705 32.3826 25.9293 29.2917 29.0202C26.2008 32.1111 21.9765 34 17.2715 34C12.5664 34 8.34219 32.1111 5.25128 29.0202C2.16037 25.9293 0.271484 21.705 0.271484 17C0.271484 12.2949 2.16037 8.07071 5.25128 4.9798C8.34219 1.88889 12.5664 0 17.2715 0ZM28.3644 5.90707C25.5139 3.05657 21.5988 1.30505 17.2715 1.30505C12.9442 1.30505 9.02904 3.05657 6.17854 5.90707C3.32803 8.75758 1.57653 12.6727 1.57653 17C1.57653 21.3273 3.32803 25.2424 6.17854 28.0929C9.02904 30.9434 12.9442 32.695 17.2715 32.695C21.5988 32.695 25.5139 30.9434 28.3644 28.0929C31.2149 25.2424 32.9664 21.3273 32.9664 17C32.9664 12.6727 31.2149 8.75758 28.3644 5.90707Z" fill="white"/>
<path fill-rule="evenodd" clip-rule="evenodd" d="M26.6816 12.261C26.4412 12.0892 25.5139 12.0892 24.621 12.0892C23.6937 12.1236 22.7665 12.1236 22.5604 12.1923C22.3543 12.261 21.9079 13.3256 21.3584 14.4589C20.7058 15.6953 19.8816 16.8973 19.4008 16.8973C18.7483 16.8973 18.8856 14.8711 18.9543 13.3256C18.9543 12.3296 18.817 12.0206 18.6453 11.9175C18.3018 11.6771 17.3402 11.4367 17.3402 11.4367C17.3402 11.4367 14.4553 11.2306 14.0432 12.467C14.5927 12.5357 15.5543 12.364 15.1766 16.2105C15.1422 16.3822 14.7301 17.9963 13.3907 15.8327C13.0473 15.2832 11.7766 12.0892 11.3301 12.0549C9.85332 12.0206 8.37656 11.9519 7.86141 12.2266C7.3806 12.5014 8.51394 14.6993 10.4028 17.6529C11.9483 20.0913 13.5624 21.9801 16.3786 22.4266C16.9281 22.4953 18.3018 22.5296 18.7483 22.3236C19.023 22.1862 18.6796 20.0913 19.6756 19.8852C20.122 19.8165 21.8392 22.0832 22.4917 22.3236C22.9038 22.4953 23.7624 22.564 24.6554 22.4953C25.617 22.461 26.716 22.5983 26.819 21.9458C27.0594 20.5034 23.8998 18.6145 23.8311 17.7216C23.7624 17.069 24.9644 15.9014 25.617 15.0084C26.3038 14.0125 27.1624 12.6731 26.6816 12.261Z" fill="white"/>
</svg>
