<svg width="75" height="75" viewBox="0 0 75 75" fill="none" xmlns="http://www.w3.org/2000/svg">
<path d="M29.6875 53.4975C29.4312 53.4975 29.1781 53.435 28.9469 53.3069C28.4406 53.0412 28.125 52.51 28.125 51.935V23.0662C28.125 22.4912 28.4406 21.96 28.9469 21.6975C29.45 21.4225 30.0656 21.4475 30.5469 21.7662L52.4219 36.2006C52.8594 36.4881 53.125 36.9756 53.125 37.5006C53.125 38.0256 52.8625 38.5194 52.4219 38.8069L30.5469 53.2412C30.2875 53.4131 29.9875 53.4975 29.6875 53.4975ZM31.25 25.9725V49.0381L48.725 37.51L31.25 25.9725Z" fill="#D10000"/>
<path d="M37.5 3.125C56.45 3.125 71.875 18.55 71.875 37.5C71.875 56.45 56.45 71.875 37.5 71.875C18.5469 71.875 3.125 56.45 3.125 37.5C3.125 18.55 18.5469 3.125 37.5 3.125ZM37.5 0C16.7906 0 0 16.7906 0 37.5C0 58.2094 16.7906 75 37.5 75C58.2094 75 75 58.2094 75 37.5C75 16.7906 58.2094 0 37.5 0Z" fill="#D10000"/>
</svg>
