<svg width="60" height="60" viewBox="0 0 80 80" fill="none" xmlns="http://www.w3.org/2000/svg">
<path d="M68.2844 11.7156C60.7294 4.16063 50.6844 0 40 0C29.3156 0 19.2706 4.16063 11.7156 11.7156C4.16078 19.2706 0 29.3156 0 40C0 50.6844 4.16078 60.7294 11.7156 68.2844C19.2706 75.8394 29.3156 80 40 80C50.6844 80 60.7294 75.8394 68.2844 68.2844C75.8392 60.7294 80 50.6844 80 40C80 29.3156 75.8392 19.2706 68.2844 11.7156ZM40 75.3125C20.5286 75.3125 4.6875 59.4714 4.6875 40C4.6875 20.5286 20.5286 4.6875 40 4.6875C59.4714 4.6875 75.3125 20.5286 75.3125 40C75.3125 59.4714 59.4714 75.3125 40 75.3125Z" fill="#D10000"/>
<path d="M42.5105 37.6563H37.4896C34.6291 37.6563 32.3021 35.3293 32.3021 32.469C32.3021 29.6085 34.6293 27.2815 37.4896 27.2815H47.5313C48.8257 27.2815 49.8751 26.2321 49.8751 24.9377C49.8751 23.6434 48.8257 22.594 47.5313 22.594H42.3438V17.4065C42.3438 16.1121 41.2944 15.0627 40.0001 15.0627C38.7057 15.0627 37.6563 16.1121 37.6563 17.4065V22.594H37.4898C32.0446 22.594 27.6147 27.024 27.6147 32.469C27.6147 37.914 32.0448 42.3438 37.4898 42.3438H42.5107C45.371 42.3438 47.698 44.671 47.698 47.5313C47.698 50.3917 45.371 52.7188 42.5107 52.7188H32.469C31.1746 52.7188 30.1252 53.7682 30.1252 55.0626C30.1252 56.357 31.1746 57.4063 32.469 57.4063H37.6563V62.594C37.6563 63.8884 38.7057 64.9377 40.0001 64.9377C41.2944 64.9377 42.3438 63.8884 42.3438 62.594V57.4063H42.5105C47.9555 57.4063 52.3854 52.9763 52.3854 47.5313C52.3854 42.0863 47.9555 37.6563 42.5105 37.6563Z" fill="#D10000"/>
</svg>
