<svg width="86" height="34" viewBox="0 0 86 34" fill="none" xmlns="http://www.w3.org/2000/svg">
<path d="M39.7927 33.919H48.8428L29.4348 0H20.2801L0.87207 33.919H9.81754L13.741 26.7476H35.8692L39.7927 33.919ZM13.741 26.7476L24.779 6.63844L35.8692 26.7476H13.741ZM69.973 0H44.9153V33.919H53.2853V22.968H69.973C79.3893 22.968 85.6668 18.9946 85.6668 11.484C85.6668 4.07028 79.3893 0 69.973 0ZM69.293 16.5719H44.9153V6.63844L69.293 6.49307C74.0011 6.49307 77.1399 7.65601 77.1399 11.5325C77.1399 15.4089 74.0011 16.5719 69.293 16.5719Z" fill="#D10000"/>
</svg>
