<svg width="161" height="68" viewBox="0 0 161 68" fill="none" xmlns="http://www.w3.org/2000/svg">
<path d="M10.8993 64.3149H14.1393L8.7344 51.417H5.40488L0 64.3149H3.19515L4.18057 61.8459H9.91392L10.8993 64.3149ZM5.22571 59.1742L7.04725 54.6046L8.85385 59.1742H5.22571ZM26.838 54.1072H23.7922L21.2986 60.9614L18.8052 54.1072H15.7146L19.7608 64.3149H22.7917L26.838 54.1072ZM36.5725 61.33C36.0947 61.6063 35.6319 61.809 35.1392 61.809C34.3479 61.809 33.7954 61.2747 33.7954 60.3534V56.6683H36.9756V54.1072H33.7954V51.7303H30.8541V54.1072H29.3909V56.6683H30.8541V60.9614C30.8541 63.4305 32.2725 64.7018 34.1538 64.7018C35.1541 64.7018 36.3187 64.3333 37.0655 63.7069L36.5725 61.33ZM45.5134 64.7387C48.828 64.7387 50.9183 62.6197 50.9183 59.211C50.9183 55.7839 48.828 53.7018 45.5134 53.7018C42.1839 53.7018 40.0936 55.7839 40.0936 59.211C40.0936 62.6197 42.1839 64.7387 45.5134 64.7387ZM45.5134 61.938C44.0054 61.938 42.9155 60.9983 42.9155 59.211C42.9155 57.4053 44.0054 56.484 45.5134 56.484C47.0214 56.484 48.1113 57.4053 48.1113 59.211C48.1113 60.9983 47.0214 61.938 45.5134 61.938ZM61.815 60.1507V57.2948H54.6782V60.1507H61.815ZM73.5118 51.417H66.2555V64.3149H69.3013V60.4455H73.5118C76.3635 60.4455 78.2597 58.9346 78.2597 55.9313C78.2597 52.9648 76.3635 51.417 73.5118 51.417ZM73.258 57.7186H69.3013V54.273H73.258C74.3927 54.273 75.1691 54.6968 75.1691 56.005C75.1691 57.2948 74.3927 57.7186 73.258 57.7186ZM86.8467 64.7387C90.1613 64.7387 92.2515 62.6197 92.2515 59.211C92.2515 55.7839 90.1613 53.7018 86.8467 53.7018C83.5171 53.7018 81.4269 55.7839 81.4269 59.211C81.4269 62.6197 83.5171 64.7387 86.8467 64.7387ZM86.8467 61.938C85.3387 61.938 84.2487 60.9983 84.2487 59.211C84.2487 57.4053 85.3387 56.484 86.8467 56.484C88.3547 56.484 89.4446 57.4053 89.4446 59.211C89.4446 60.9983 88.3547 61.938 86.8467 61.938ZM97.5643 53.0753C98.5497 53.0753 99.2514 52.3936 99.2514 51.3617C99.2514 50.3299 98.5497 49.6482 97.5643 49.6482C96.5639 49.6482 95.8622 50.3299 95.8622 51.3617C95.8622 52.3936 96.5639 53.0753 97.5643 53.0753ZM99.0573 54.1072H96.1011V64.3149H99.0573V54.1072ZM108.029 57.737C106.626 57.6449 105.745 57.5343 105.745 56.9263C105.745 56.2998 106.805 56.134 107.716 56.134C109.104 56.134 110.224 56.5209 111.06 57.1474L112.315 55.0837C111.225 54.273 109.582 53.6834 107.791 53.6834C104.715 53.6834 102.998 55.1021 102.998 57.1842C102.998 59.5058 105.297 60.3166 107.686 60.5192C109.224 60.6298 109.926 60.8509 109.926 61.4405C109.926 62.0486 109.149 62.2697 107.985 62.2697C106.238 62.2697 104.849 61.68 103.953 60.8693L102.669 62.8409C103.834 63.9095 105.685 64.7387 107.895 64.7387C111.12 64.7387 112.673 63.1172 112.673 61.1089C112.673 58.8609 110.657 57.9212 108.029 57.737ZM123.448 64.3149H126.613L122.955 58.2345L126.404 54.1072H123.104L119.312 58.5846V50.68H116.371V64.3149H119.312V61.9933L120.954 60.1876L123.448 64.3149ZM143.147 53.7386C141.639 53.7386 140.474 54.4572 139.743 55.5996V50.68H136.801V64.3149H139.743V62.8224C140.474 63.9648 141.639 64.7018 143.147 64.7018C145.745 64.7018 147.536 62.5829 147.536 59.211C147.536 55.8391 145.745 53.7386 143.147 53.7386ZM142.326 61.9012C141.325 61.9012 140.414 61.4958 139.757 60.4455V57.9765C140.414 56.9263 141.325 56.5209 142.326 56.5209C143.878 56.5209 144.744 57.5159 144.744 59.211C144.744 60.9246 143.878 61.9012 142.326 61.9012ZM158.014 54.1072L155.58 60.4455L153.057 54.1072H150.026L154.117 63.7437L152.236 68H155.207L161 54.1072H158.014Z" fill="white"/>
<path d="M131.137 64.5544C132.138 64.5544 132.84 63.7805 132.84 62.7302C132.84 61.6984 132.138 60.8877 131.137 60.8877C130.122 60.8877 129.42 61.6984 129.42 62.7302C129.42 63.7805 130.122 64.5544 131.137 64.5544Z" fill="#D10000"/>
<path d="M74.7927 33.919H83.8428L64.4348 0H55.2801L35.8721 33.919H44.8175L48.741 26.7476H70.8692L74.7927 33.919ZM48.741 26.7476L59.779 6.63844L70.8692 26.7476H48.741ZM104.973 0H79.9153V33.919H88.2853V22.968H104.973C114.389 22.968 120.667 18.9946 120.667 11.484C120.667 4.07028 114.389 0 104.973 0ZM104.293 16.5719H79.9153V6.63844L104.293 6.49307C109.001 6.49307 112.14 7.65601 112.14 11.5325C112.14 15.4089 109.001 16.5719 104.293 16.5719Z" fill="#D10000"/>
</svg>
