<svg width="27" height="27" viewBox="0 0 27 27" fill="none" xmlns="http://www.w3.org/2000/svg">
<path d="M13.5007 3.17676C10.6108 3.17676 8.26807 5.51946 8.26807 8.40966C8.26807 11.2993 10.6111 15.6451 13.5007 15.6451C16.3912 15.6451 18.7333 11.299 18.7333 8.40966C18.7333 5.51946 16.3915 3.17676 13.5007 3.17676Z" fill="black" fill-opacity="0.5"/>
<path d="M13.5 0C6.0561 0 0 6.0564 0 13.5C0 20.9436 6.0561 27 13.5 27C20.9439 27 27 20.9436 27 13.5C27 6.0564 20.9439 0 13.5 0ZM23.0022 20.682C22.8969 14.8413 20.4345 15.1104 17.3088 14.8254C17.283 15.9693 15.5886 16.8927 13.4991 16.8927C11.4105 16.8927 9.7152 15.9693 9.6903 14.8254C6.5643 15.111 4.1028 14.8416 3.9978 20.682C2.4861 18.6849 1.5882 16.1976 1.5882 13.5C1.5882 6.9216 6.921 1.5882 13.5 1.5882C20.079 1.5882 25.4118 6.9216 25.4118 13.5C25.4118 16.1976 24.5139 18.6849 23.0022 20.682Z" fill="black" fill-opacity="0.5"/>
</svg>
