<svg width="28" height="153" viewBox="0 0 28 153" fill="none" xmlns="http://www.w3.org/2000/svg">
<path fill-rule="evenodd" clip-rule="evenodd" d="M14.0003 107.409C14.5947 107.409 15.0772 107.883 15.0772 108.469V114.831C15.0772 115.417 14.5947 115.891 14.0003 115.891C13.4058 115.891 12.9233 115.417 12.9233 114.831V108.469C12.9233 107.883 13.4058 107.409 14.0003 107.409ZM15.0772 149.395L18.631 145.896C18.8464 145.684 19.0618 145.578 19.3848 145.578C19.7079 145.578 19.9233 145.684 20.1387 145.896C20.5695 146.321 20.5695 146.956 20.1387 147.382L14.7541 152.683C14.5387 152.895 14.2695 153 14.0003 153C13.731 153 13.4618 152.895 13.2464 152.683L7.86182 147.382C7.43106 146.956 7.43106 146.321 7.86182 145.896C8.07721 145.684 8.29259 145.578 8.61567 145.578C8.93874 145.578 9.15413 145.684 9.36951 145.896L12.9233 149.395V134.975C12.9233 134.34 13.3541 133.915 14.0003 133.915C14.6464 133.915 15.0772 134.34 15.0772 134.975V149.395ZM10.0627 139.62C10.6119 139.82 10.8995 140.423 10.711 140.963C10.5183 141.509 9.90226 141.807 9.34119 141.619C8.11888 141.194 5.26182 140.018 2.96045 137.122C0.163692 133.598 0.00215384 129.817 0 128.614V108.469C0.00215384 107.422 0.130307 102.91 3.71644 99.096C7.76242 94.7955 13.1007 94.6884 13.9999 94.6852C14.8916 94.6852 20.2611 94.7754 24.3114 99.096C27.89 102.913 28.0009 107.428 27.9999 108.469V128.614C28.0052 129.8 27.8631 133.35 25.3119 136.779C22.9287 139.982 19.8261 141.217 18.6608 141.618C18.103 141.808 17.4848 141.514 17.2899 140.965C17.0961 140.415 17.3965 139.806 17.9544 139.614C18.9861 139.249 21.4307 138.225 23.3831 135.721C25.6834 132.772 25.8385 129.646 25.846 128.614V108.469C25.846 107.622 25.7545 103.696 22.6034 100.428C19.1831 96.88 14.7602 96.8058 13.9999 96.8058C13.2644 96.8079 8.54211 96.9033 5.09274 100.755C1.98476 104.226 2.11076 108.29 2.15384 109.118V128.614C2.1646 129.651 2.33153 132.682 4.53921 135.59C6.52074 138.2 9.04288 139.255 10.0627 139.62ZM11.8463 84.1205C11.8463 82.95 12.8112 82 14.0001 82C15.1891 82 16.154 82.95 16.154 84.1205C16.154 85.2932 15.1891 86.2411 14.0001 86.2411C12.8112 86.2411 11.8463 85.2932 11.8463 84.1205ZM11.8463 90.4822C11.8463 89.3095 12.8112 88.3616 14.0001 88.3616C15.1891 88.3616 16.154 89.3095 16.154 90.4822C16.154 91.6527 15.1891 92.6027 14.0001 92.6027C12.8112 92.6027 11.8463 91.6527 11.8463 90.4822Z" fill="white"/>
<path d="M17.12 57.82C17.12 58.5333 16.9667 59.18 16.66 59.76C16.3467 60.3333 15.9167 60.7867 15.37 61.12C14.8167 61.4467 14.1933 61.61 13.5 61.61C12.8067 61.61 12.1867 61.4467 11.64 61.12C11.0867 60.7867 10.6567 60.3333 10.35 59.76C10.0367 59.18 9.88 58.53 9.88 57.81C9.88 57.2033 9.98667 56.6567 10.2 56.17C10.4133 55.6767 10.72 55.2633 11.12 54.93L12.08 55.97C11.5333 56.4433 11.26 57.03 11.26 57.73C11.26 58.1633 11.3567 58.55 11.55 58.89C11.7367 59.23 12 59.4967 12.34 59.69C12.68 59.8767 13.0667 59.97 13.5 59.97C13.9333 59.97 14.32 59.8767 14.66 59.69C15 59.4967 15.2667 59.23 15.46 58.89C15.6467 58.55 15.74 58.1633 15.74 57.73C15.74 57.03 15.4633 56.4433 14.91 55.97L15.87 54.93C16.2767 55.2633 16.5867 55.6767 16.8 56.17C17.0133 56.6633 17.12 57.2133 17.12 57.82ZM14.18 49.9641L14.18 51.0841L17 51.0841L17 52.6941L10 52.6941L10 51.0841L12.83 51.0841L12.83 49.9241L10 48.0841L10 46.3741L13.38 48.6641L17 46.3041L17 48.1441L14.18 49.9641ZM10 41.3152C10 40.6952 10.1033 40.1586 10.31 39.7052C10.5167 39.2452 10.81 38.8919 11.19 38.6452C11.57 38.3986 12.02 38.2752 12.54 38.2752C13.0533 38.2752 13.5033 38.3986 13.89 38.6452C14.27 38.8919 14.5633 39.2452 14.77 39.7052C14.97 40.1586 15.07 40.6952 15.07 41.3152L15.07 42.7252L17 42.7252L17 44.3452L10 44.3452L10 41.3152ZM13.75 41.4052C13.75 40.9186 13.6467 40.5486 13.44 40.2952C13.2267 40.0419 12.9267 39.9152 12.54 39.9152C12.1467 39.9152 11.8467 40.0419 11.64 40.2952C11.4267 40.5486 11.32 40.9186 11.32 41.4052L11.32 42.7252L13.75 42.7252L13.75 41.4052ZM17.12 32.5689C17.12 33.2956 16.9633 33.9522 16.65 34.5389C16.3367 35.1189 15.9067 35.5756 15.36 35.9089C14.8067 36.2356 14.1867 36.3989 13.5 36.3989C12.8133 36.3989 12.1967 36.2356 11.65 35.9089C11.0967 35.5756 10.6633 35.1189 10.35 34.5389C10.0367 33.9522 9.88 33.2956 9.88 32.5689C9.88 31.8422 10.0367 31.1889 10.35 30.6089C10.6633 30.0289 11.0967 29.5722 11.65 29.2389C12.1967 28.9056 12.8133 28.7389 13.5 28.7389C14.1867 28.7389 14.8067 28.9056 15.36 29.2389C15.9067 29.5722 16.3367 30.0289 16.65 30.6089C16.9633 31.1889 17.12 31.8422 17.12 32.5689ZM15.74 32.5689C15.74 32.1556 15.6467 31.7822 15.46 31.4489C15.2667 31.1156 15 30.8556 14.66 30.6689C14.32 30.4756 13.9333 30.3789 13.5 30.3789C13.0667 30.3789 12.68 30.4756 12.34 30.6689C12 30.8556 11.7367 31.1156 11.55 31.4489C11.3567 31.7822 11.26 32.1556 11.26 32.5689C11.26 32.9822 11.3567 33.3556 11.55 33.6889C11.7367 34.0222 12 34.2856 12.34 34.4789C12.68 34.6656 13.0667 34.7589 13.5 34.7589C13.9333 34.7589 14.32 34.6656 14.66 34.4789C15 34.2856 15.2667 34.0222 15.46 33.6889C15.6467 33.3556 15.74 32.9822 15.74 32.5689ZM10 20.2463L17 20.2463L17 21.8463L11.32 21.8463L11.32 24.2463L12.78 24.2963C13.7733 24.3296 14.58 24.4096 15.2 24.5363C15.8133 24.6629 16.2867 24.8763 16.62 25.1763C16.9467 25.4696 17.11 25.8829 17.11 26.4163C17.11 26.6363 17.0733 26.9029 17 27.2163L15.63 27.1163C15.6567 27.0296 15.67 26.9329 15.67 26.8263C15.67 26.4396 15.4433 26.1696 14.99 26.0163C14.53 25.8629 13.8133 25.7663 12.84 25.7263L10 25.6263L10 20.2463ZM10 11.1068L17 11.1068L17 12.7068L11.32 12.7068L11.32 15.1068L12.78 15.1568C13.7733 15.1901 14.58 15.2701 15.2 15.3968C15.8133 15.5235 16.2867 15.7368 16.62 16.0368C16.9467 16.3301 17.11 16.7435 17.11 17.2768C17.11 17.4968 17.0733 17.7635 17 18.0768L15.63 17.9768C15.6567 17.8901 15.67 17.7935 15.67 17.6868C15.67 17.3001 15.4433 17.0301 14.99 16.8768C14.53 16.7235 13.8133 16.6268 12.84 16.5868L10 16.4868L10 11.1068Z" fill="white"/>
</svg>
