<svg width="35" height="34" viewBox="0 0 35 34" fill="none" xmlns="http://www.w3.org/2000/svg">
<path d="M17.6367 0C22.3418 0 26.6004 1.88889 29.6569 4.9798C32.7478 8.07071 34.6367 12.295 34.6367 17C34.6367 21.7051 32.7478 25.9293 29.6569 29.0202C26.6004 32.1111 22.3418 34 17.6367 34C12.9317 34 8.70743 32.1111 5.61652 29.0202C2.52561 25.9293 0.636719 21.7051 0.636719 17C0.636719 12.295 2.52561 8.07071 5.61652 4.9798C8.67308 1.88889 12.9317 0 17.6367 0ZM28.7296 5.90707C25.8791 3.05656 21.964 1.30505 17.6367 1.30505C13.3094 1.30505 9.39429 3.05656 6.54379 5.90707C3.69328 8.75758 1.94177 12.6727 1.94177 17C1.94177 21.3273 3.69328 25.2424 6.54379 28.0929C9.39429 30.9434 13.3094 32.695 17.6367 32.695C21.964 32.695 25.8791 30.9434 28.7296 28.0929C31.5801 25.2424 33.3317 21.3273 33.3317 17C33.2973 12.6727 31.5458 8.75758 28.7296 5.90707Z" fill="white"/>
<path fill-rule="evenodd" clip-rule="evenodd" d="M13.2757 17.0006C13.2757 14.5965 15.2332 12.639 17.6373 12.639C20.0413 12.639 21.9989 14.5965 21.9989 17.0006C21.9989 19.4046 20.0413 21.3622 17.6373 21.3622C15.2332 21.3622 13.2757 19.4046 13.2757 17.0006ZM22.1363 8.4834H13.1383C10.9403 8.4834 9.12012 10.3036 9.12012 12.5016V21.4996C9.12012 23.6975 10.9403 25.5177 13.1383 25.5177H22.1363C24.3686 25.5177 26.1545 23.6975 26.1545 21.4996V12.5016C26.1545 10.3036 24.3686 8.4834 22.1363 8.4834ZM13.1383 9.47936H22.1363C23.8191 9.47936 25.1585 10.8188 25.1585 12.5016V21.4996C25.1585 23.1824 23.8191 24.5218 22.1363 24.5218H13.1383C11.4555 24.5218 10.1161 23.1824 10.1161 21.4996V12.5016C10.1161 10.8531 11.4898 9.47936 13.1383 9.47936ZM23.0292 10.7501C22.5484 10.7501 22.1363 11.1622 22.1363 11.643C22.1363 12.1238 22.5484 12.5359 23.0292 12.5359C23.51 12.5359 23.9221 12.1238 23.9221 11.643C23.9221 11.1622 23.51 10.7501 23.0292 10.7501ZM23.1322 17.0006C23.1322 13.9783 20.6595 11.5056 17.6373 11.5056C14.6151 11.5056 12.1423 13.9783 12.1423 17.0006C12.1423 20.0571 14.6151 22.4955 17.6373 22.4955C20.6595 22.4955 23.1322 20.0571 23.1322 17.0006Z" fill="white"/>
</svg>
