<svg width="35" height="34" viewBox="0 0 35 34" fill="none" xmlns="http://www.w3.org/2000/svg">
<path d="M17.8398 6.7998C15.1436 6.7998 12.951 8.99244 12.951 11.6886C12.951 14.3848 15.1436 16.5774 17.8398 16.5774C20.536 16.5774 22.7286 14.3848 22.7286 11.6886C22.7286 8.99244 20.536 6.7998 17.8398 6.7998ZM17.8398 14.133C16.4917 14.133 15.3954 13.0367 15.3954 11.6886C15.3954 10.3405 16.4917 9.24421 17.8398 9.24421C19.1879 9.24421 20.2842 10.3405 20.2842 11.6886C20.2842 13.0367 19.1879 14.133 17.8398 14.133Z" fill="white"/>
<path d="M24.3223 16.4417C23.8444 15.9638 23.072 15.9638 22.5941 16.4417C19.9737 19.0621 15.7082 19.0621 13.0866 16.4417C12.6087 15.9638 11.8363 15.9638 11.3584 16.4417C10.8805 16.9196 10.8805 17.692 11.3584 18.1711C12.8788 19.6915 14.8062 20.5581 16.7935 20.7842L13.309 24.2687C12.8312 24.7466 12.8312 25.519 13.309 25.9969C13.7869 26.4748 14.5594 26.4748 15.0372 25.9969L17.8398 23.1944L20.6423 25.9969C20.8806 26.2352 21.1935 26.355 21.5064 26.355C21.8192 26.355 22.1321 26.2352 22.3705 25.9969C22.8483 25.519 22.8483 24.7466 22.3705 24.2687L18.886 20.7842C20.8733 20.5581 22.8007 19.6915 24.3211 18.1711C24.799 17.6932 24.799 16.9196 24.3223 16.4417Z" fill="white"/>
<path d="M17.7998 0C22.5049 0 26.7291 1.88889 29.82 4.9798C32.9109 8.07071 34.7998 12.295 34.7998 17C34.7998 21.7051 32.9109 25.9293 29.82 29.0202C26.7291 32.1111 22.5049 34 17.7998 34C13.0948 34 8.87051 32.1111 5.7796 29.0202C2.68869 25.9293 0.799805 21.7051 0.799805 17C0.799805 12.295 2.68869 8.07071 5.7796 4.9798C8.83617 1.88889 13.0948 0 17.7998 0ZM28.8927 5.90707C26.0422 3.05656 22.1271 1.30505 17.7998 1.30505C13.4725 1.30505 9.55738 3.05656 6.70688 5.90707C3.85637 8.75758 2.10485 12.6727 2.10485 17C2.10485 21.3273 3.85637 25.2424 6.70688 28.0929C9.55738 30.9434 13.4725 32.695 17.7998 32.695C22.1271 32.695 26.0422 30.9434 28.8927 28.0929C31.7432 25.2424 33.4948 21.3273 33.4948 17C33.4604 12.6727 31.7089 8.75758 28.8927 5.90707Z" fill="white"/>
</svg>
